{"title":"Don't Breathe 2016.cam.h264.No.Flicker","uid":15776615,"size":582495102,"categoryP":"video","categoryS":"movies","magnet":"?xt=urn:btih:7c6d93fc45721b014a645d9281d8c65dc89823fc&amp;dn=Don%27t+Breathe+2016.cam.h264.No.Flicker&amp;tr=udp%3A%2F%2Ftracker.leechers-paradise.org%3A6969&amp;tr=udp%3A%2F%2Fzer0day.ch%3A1337&amp;tr=udp%3A%2F%2Fopen.demonii.com%3A1337&amp;tr=udp%3A%2F%2Ftracker.coppersurfer.tk%3A6969&amp;tr=udp%3A%2F%2Fexodus.desync.com%3A6969","seeders":4,"leechers":1,"uploader":"xxTheOnexx","files":15,"time":1473240501,"description":"\n             Screens\r\n  \nhttp://postimg.org/gallery/2dey70980/\r\n\r\n\r\n\r\nThank you to Unknown for original release, ran it thru a \r\ncouple of filters, tried to brighten it up, and some color\r\ngot rid of that ugly flicker, denoised and sharpened as well. \r\n\r\n\r\nGeneral\r\n-------\r\n\r\nFormat                    : MPEG-4\r\nCodec ID                  : mp42\r\nFile size                 : 547 MiB\r\nDuration                  : 1h 22mn\r\nOverall bit rate mode     : Variable\r\nOverall bit rate          : 928 Kbps\r\n©TIM                      : 00:00:00:00\r\n©TSC                      : 30\r\n©TSZ                      : 1\r\n\r\nVideo\r\n-----\r\nID                        : 1\r\nFormat                    : AVC\r\nFormat/Info               : Advanced Video Codec\r\nFormat profile            :   \r\nFormat settings, CABAC    : Yes\r\nFormat settings, ReFrames : 3 frames\r\nFormat settings, GOP      : M=3, N=33\r\nCodec ID                  : avc1\r\nCodec ID/Info             : Advanced Video Coding\r\nDuration                  : 1h 22mn\r\nSource duration           : 1h 22mn\r\nBit rate                  : 794 Kbps\r\nWidth                     : 720 pixels\r\nHeight                    : 306 pixels\r\nDisplay aspect ratio      : 2.35:1\r\nFrame rate mode           : Variable\r\nFrame rate                : 30.000 fps\r\nMinimum frame rate        : 30.000 fps\r\nMaximum frame rate        : 30.030 fps\r\nStandard                  : NTSC\r\nColor space               : YUV\r\nChroma subsampling        : 4:2:0\r\nBit depth                 : 8 bits\r\nScan type                 : Progressive\r\nBits/(Pixel*Frame)        : 0.120\r\nStream size               : 468 MiB (86%)\r\nSource stream size        : 468 MiB (86%)\r\nLanguage                  : English\r\nEncoded date              : UTC 2016-09-07 07:12:39\r\nTagged date               : UTC 2016-09-07 07:12:39\r\nColor primaries           : BT.601 NTSC\r\nTransfer characteristics  : BT.601\r\nMatrix coefficients       : BT.601\r\nmdhd_Duration             : 4948434\r\n\r\nAudio\r\n-----\r\nID                        : 2\r\nFormat                    : AAC\r\nFormat/Info               : Advanced Audio Codec\r\nFormat profile            : LC\r\nCodec ID                  : 40\r\nDuration                  : 1h 22mn\r\nSource duration           : 1h 22mn\r\nBit rate mode             : Variable\r\nBit rate                  : 125 Kbps\r\nMaximum bit rate          : 217 Kbps\r\nChannel(s)                : 2 channels\r\nChannel positions         : Front: L R\r\nSampling rate             : 48.0 KHz\r\nCompression mode          : Lossy\r\nStream size               : 74.0 MiB (14%)\r\nSource stream size        : 74.0 MiB (14%)\r\nLanguage                  : English\r\nmdhd_Duration             : 4948438","torrent":{"xt":"urn:btih:7c6d93fc45721b014a645d9281d8c65dc89823fc","amp;dn":"Don%27t+Breathe+2016.cam.h264.No.Flicker","amp;tr":["udp%3A%2F%2Ftracker.leechers-paradise.org%3A6969","udp%3A%2F%2Fzer0day.ch%3A1337","udp%3A%2F%2Fopen.demonii.com%3A1337","udp%3A%2F%2Ftracker.coppersurfer.tk%3A6969","udp%3A%2F%2Fexodus.desync.com%3A6969"],"infoHash":"7c6d93fc45721b014a645d9281d8c65dc89823fc","infoHashBuffer":{"type":"Buffer","data":[124,109,147,252,69,114,27,1,74,100,93,146,129,216,198,93,200,152,35,252]},"announce":[],"urlList":[]}}